# xmcd
#
# Track frame offsets:
#	150
#	11403
#	28182
#	46583
#	63886
#	80927
#	94969
#	105555
#	122204
#	137268
#	151062
#	172875
#	190969
#	205794
#	221480
#	236884
#	256488
#
# Disc length: 3657 seconds
#
# Revision: 0
# Processed by: cddbd v1.5.2PL0 Copyright (c) Steve Scherf et al.
# Submitted via: audiograbber 1.83.01
#
DISCID=e10e4711
DTITLE=Strait, George - CB5133-02
DYEAR=1900
DGENRE=Karaoke
TTITLE0=Honk If You Honky Tonk
TTITLE1=Give It Away
TTITLE2=Designated Drinker
TTITLE3=Living For The Night
TTITLE4=True
TTITLE5=Twang
TTITLE6=The Big One
TTITLE7=Meanwhile
TTITLE8=Overnight Success
TTITLE9=Troubadour
TTITLE10=Shift Work
TTITLE11=The Road Less Traveled
TTITLE12=The Cowboy Rides Away
TTITLE13=River of Love
TTITLE14=Peace Of Mind
TTITLE15=The Seashores of Old Mexico
TTITLE16=You Haven't Left Me Yet
EXTD=
EXTT0=
EXTT1=
EXTT2=
EXTT3=
EXTT4=
EXTT5=
EXTT6=
EXTT7=
EXTT8=
EXTT9=
EXTT10=
EXTT11=
EXTT12=
EXTT13=
EXTT14=
EXTT15=
EXTT16=
PLAYORDER=
